# AST/ASF file generated using VICON BodyLanguage
# -----------------------------------------------
:version 1.10
:name VICON
:units
  mass 1.0
  length 0.45
  angle deg
:documentation
   .ast/.asf automatically generated from VICON data using
   VICON BodyBuilder and BodyLanguage model FoxedUp or BRILLIANT.MOD
:root
   order TX TY TZ RX RY RZ
   axis XYZ
   position 0 0 0  
   orientation 0 0 0 
:bonedata
  begin
     id 1 
     name lhipjoint
     direction 0.710188 -0.616876 0.339259 
     length 2.5669 
     axis 0 0 0  XYZ
  end
  begin
     id 2 
     name lfemur
     direction 0.34202 -0.939693 0  
     length 7.12796  
     axis 0 0 20  XYZ
    dof rx ry rz
    limits (-160.0 20.0)
           (-70.0 70.0)
           (-60.0 70.0)
  end
  begin
     id 3 
     name ltibia
     direction 0.34202 -0.939693 0   
     length 7.58108   
     axis 0 0 20   XYZ
    dof rx
    limits (-10.0 170.0)
  end
  begin
     id 4 
     name lfoot
     direction 0.0669471 -0.183936 0.980656   
     length 2.17365   
     axis -90 7.62852e-016 20   XYZ
    dof rx rz
    limits (-45.0 90.0)
           (-70.0 20.0)
  end
  begin
     id 5 
     name ltoes
     direction 1.53508e-011 -4.21705e-011 1   
     length 1.09427   
     axis -90 7.62852e-016 20   XYZ
    dof rx
    limits (-90.0 20.0)
  end
  begin
     id 6 
     name rhipjoint
     direction -0.700191 -0.625589 0.34405   
     length 2.53115  
     axis 0 0 0  XYZ 
  end
  begin
     id 7 
     name rfemur
     direction -0.34202 -0.939693 0   
     length 7.33006   
     axis 0 0 -20   XYZ
    dof rx ry rz
    limits (-160.0 20.0)
           (-70.0 70.0)
           (-70.0 60.0)
  end
  begin
     id 8 
     name rtibia
     direction -0.34202 -0.939693 0   
     length 7.64926   
     axis 0 0 -20   XYZ
    dof rx
    limits (-10.0 170.0)
 end
 begin
     id 9 
     name rfoot
     direction -0.0688927 -0.189281 0.979503   
     length 2.20493  
     axis -90 -7.62852e-016 -20   XYZ
    dof rx rz
    limits (-45.0 90.0)
           (-20.0 70.0)
  end
  begin
     id 10 
     name rtoes
     direction -1.53567e-011 -4.21933e-011 1   
     length 1.10919   
     axis -90 -7.62852e-016 -20   XYZ
    dof rx
    limits (-90.0 20.0)
  end
  begin
     id 11 
     name lowerback
     direction -0.0167868 0.989873 -0.140959   
     length 2.14596   
     axis 0 0 0   XYZ
    dof rx ry rz
    limits (-20.0 45.0)
           (-30.0 30.0)
           (-30.0 30.0)
  end
  begin
     id 12 
     name upperback
     direction 0.0129109 0.998033 0.0613525   
     length 2.10457   
     axis 0 0 0   XYZ
    dof rx ry rz
    limits (-20.0 45.0)
           (-30.0 30.0)
           (-30.0 30.0)
  end
  begin
     id 13 
     name thorax
     direction 0.0177047 0.991119 0.131797   
     length 2.17652   
     axis 0 0 0   XYZ
    dof rx ry rz
    limits (-20.0 45.0)
           (-30.0 30.0)
           (-30.0 30.0)
  end
  begin
     id 14 
     name lowerneck
     direction -0.0336893 0.997548 0.0613464   
     length 1.8912   
     axis 0 0 0   XYZ
    dof rx ry rz
    limits (-20.0 45.0)
           (-30.0 30.0)
           (-30.0 30.0)
  end
  begin
     id 15 
     name upperneck
     direction 0.0435909 0.997179 -0.0611028   
     length 1.8829   
     axis 0 0 0   XYZ
    dof rx ry rz
    limits (-20.0 45.0)
           (-30.0 30.0)
           (-30.0 30.0)
  end
  begin
     id 16
     name head
     direction 0.0175076 0.999444 -0.0283782  
     length 1.93197  
     axis 0 0 0   XYZ
    dof rx ry rz
    limits (-20.0 45.0)
           (-30.0 30.0)
           (-30.0 30.0)
  end
  begin
     id 17 
     name lclavicle
     direction 0.919164 0.389875 0.0559876  
     length 3.60004  
     axis 0 0 0   XYZ
    dof ry rz
    limits (-20.0 10.0)
           (0.0 20.0)
  end
  begin
     id 18 
     name lhumerus
     direction 1 -4.48958e-011 6.89191e-027   
     length 5.43301   
     axis 180 -30 -90   XYZ
    dof rx ry rz
    limits (-60.0 90.0)
           (-90.0 90.0)
           (-90.0 90.0)
  end
  begin
     id 19
     name lradius
     direction 1 -4.4897e-011 3.24727e-027   
     length 3.15936   
     axis 180 -30 -90   XYZ
    dof rx
    limits (-10.0 170.0)
  end
  begin
     id 20
     name lwrist
     direction 1 -4.4897e-011 9.00228e-027   
     length 1.57968   
     axis -6.29373e-015 90 90   XYZ
    dof ry
    limits (-180.0 0.0)
 end
  begin
     id 21 
     name lhand
     direction 1 -4.48968e-011 1.80042e-026   
     length 0.712827   
     axis -1.14882e-014 90 90   XYZ
    dof rx rz
    limits (-90.0 90.0)
           (-45.0 45.0)
  end
  begin
     id 22 
     name lfingers
     direction 1 -4.49019e-011 3.60267e-026   
     length 0.574699   
     axis -2.29769e-014 90 90   XYZ
    dof rx
    limits (0.0 90.0)
  end
  begin
     id 23
     name lthumb
     direction 0.707107 -6.3498e-011 0.707107   
     length 0.825157   
     axis -90 45 5.37419e-014   XYZ
    dof rx rz
    limits (-45.0 45.0)
           (-45.0 45.0)
  end
  begin
     id 24 
     name rclavicle
     direction -0.890334 0.455305 -0.00132111   
     length 3.51494  
     axis 0 0 0   XYZ 
    dof ry rz
    limits (-10.0 20.0)
           (-20.0 0.0)
  end
  begin
     id 25 
     name rhumerus
     direction -1 -4.48967e-011 5.07175e-028  
     length 5.34194   
     axis 180 30 90   XYZ
    dof rx ry rz
    limits (-90.0 60.0)
           (-90.0 90.0)
           (-90.0 90.0)
  end
  begin
     id 26 
     name rradius
     direction -1 -4.48955e-011 3.30467e-027   
     length 3.19351   
     axis 180 30 90   XYZ
    dof rx
    limits (-10.0 170.0)
  end
  begin
     id 27 
     name rwrist
     direction -1 -4.48968e-011 9.00208e-027   
     length 1.59676   
     axis -6.29373e-015 -90 -90   XYZ
    dof ry
    limits (-180.0 0.0)
  end
  begin
     id 28
     name rhand
     direction -1 -4.49e-011 1.80099e-026   
     length 0.743862   
     axis -1.14882e-014 -90 -90   XYZ
    dof rx rz
    limits (-90.0 90.0)
           (-45.0 45.0)
  end
  begin
     id 29
     name rfingers
     direction -1 -4.49009e-011 3.6023e-026   
     length 0.599721   
     axis -2.29769e-014 -90 -90   XYZ
    dof rx
    limits (0.0 90.0)
  end
  begin
     id 30
     name rthumb
     direction -0.707107 -6.35025e-011 0.707107   
     length 0.861083   
     axis -90 -45 -5.37419e-014   XYZ
    dof rx rz
    limits (-45.0 45.0)
           (-45.0 45.0)
  end
:hierarchy
  begin
    root lhipjoint rhipjoint lowerback
    lhipjoint lfemur
    lfemur ltibia
    ltibia lfoot
    lfoot ltoes
    rhipjoint rfemur
    rfemur rtibia
    rtibia rfoot
    rfoot rtoes
    lowerback upperback
    upperback thorax
    thorax lowerneck lclavicle rclavicle
    lowerneck upperneck
    upperneck head
    lclavicle lhumerus
    lhumerus lradius
    lradius lwrist
    lwrist lhand lthumb
    lhand lfingers
    rclavicle rhumerus
    rhumerus rradius
    rradius rwrist
    rwrist rhand rthumb
    rhand rfingers
  end

#!OML:ASF H:\Martial Arts Walks\Project 1\Capture day 1\Session 1\male.ASF
:FULLY-SPECIFIED
:DEGREES
371
root -2.10351 15.8987 -27.1475 -29.9383 14.6268 -5.20885
lowerback 36.847 -0.163351 -5.76481
upperback 9.91972 -1.73308 4.04849
thorax -7.01808 -0.899354 8.00521
lowerneck -0.238329 -4.67975 -5.68698
upperneck 6.72565 -6.4947 6.07638
head 2.64357 -3.22465 2.81926
rclavicle -2.13942e-014 6.16232e-015
rhumerus -19.818 7.40573 -60.2713
rradius 112.662
rwrist -15.9763
rhand -28.7569 -34.4225
rfingers 7.12502
rthumb -2.11692 -64.3917
lclavicle -2.13942e-014 6.16232e-015
lhumerus 5.02618 -29.0126 74.1498
lradius 65.2202
lwrist 18.7531
lhand -31.7745 20.8551
lfingers 7.12502
lthumb -5.03102 50.7754
rfemur -97.6359 -11.6982 -3.35352
rtibia 59.5395
rfoot -8.44836 -14.5751
rtoes -21.8104
lfemur 14.43 2.75873 -13.713
ltibia 48.0109
lfoot -25.7589 18.0422
ltoes -6.13052
372
root -2.09757 15.9129 -26.9956 -29.671 14.3193 -4.69029
lowerback 36.0841 0.262654 -6.27606
upperback 9.94907 -1.34434 4.06536
thorax -6.89623 -0.718175 8.14941
lowerneck -0.329205 -4.81203 -5.85089
upperneck 7.05855 -6.67436 6.03574
head 2.79087 -3.31657 2.82695
rclavicle 1.99779e-014 1.21259e-014
rhumerus -19.0958 6.98805 -59.1023
rradius 112.634
rwrist -16.4946
rhand -29.066 -34.3732
rfingers 7.12502
rthumb -2.41545 -64.3393
lclavicle 1.99779e-014 1.21259e-014
lhumerus 4.50306 -29.0002 74.2098
lradius 66.4429
lwrist 18.8463
lhand -31.7762 21.2057
lfingers 7.12502
lthumb -5.03262 51.126
rfemur -96.9492 -11.4309 -5.31966
rtibia 49.5045
rfoot -6.3306 -14.1573
rtoes -25.1059
lfemur 15.4001 2.84844 -14.2339
ltibia 47.1674
lfoot -25.5752 18.8243
ltoes -6.36598
373
root -2.09849 15.9176 -26.8452 -29.2391 13.5102 -4.16133
lowerback 35.1112 0.863739 -6.87648
upperback 9.88621 -0.743006 4.16621
thorax -6.70759 -0.440225 8.35545
lowerneck -0.330383 -4.9071 -6.06096
upperneck 7.38106 -6.80397 5.96711
head 2.91643 -3.38751 2.83698
rclavicle -2.12203e-014 1.61016e-014
rhumerus -18.3151 6.63381 -58.0157
rradius 112.703
rwrist -17.1952
rhand -28.9555 -34.465
rfingers 7.12502
rthumb -2.3087 -64.4322
lclavicle -2.12203e-014 1.61016e-014
lhumerus 3.61692 -28.8902 74.3923
lradius 67.8737
lwrist 19.273
lhand -31.672 21.139
lfingers 7.12502
lthumb -4.93201 51.0616
rfemur -96.753 -10.9591 -6.99124
rtibia 41.1902
rfoot -4.94673 -13.4084
rtoes -23.4181
lfemur 16.246 3.40624 -14.4068
ltibia 46.4131
lfoot -25.5171 19.5115
ltoes -6.70474
374
root -2.10383 15.8988 -26.6783 -28.7853 12.5544 -3.78476
lowerback 33.9945 1.43618 -7.33428
upperback 9.77663 -0.10405 4.28305
thorax -6.52885 -0.139716 8.49893
lowerneck -0.269234 -4.96337 -6.22415
upperneck 7.82479 -6.88648 5.8543
head 3.06487 -3.43624 2.82591
rclavicle 3.15074e-014 -8.15017e-015
rhumerus -17.5873 6.30465 -57.1396
rradius 112.768
rwrist -17.7485
rhand -29.0801 -34.7227
rfingers 7.12502
rthumb -2.42906 -64.6886
lclavicle 3.15074e-014 -8.15017e-015
lhumerus 2.5015 -28.83 74.6028
lradius 69.3795
lwrist 20.1808
lhand -31.74 21.3803
lfingers 7.12502
lthumb -4.99767 51.3013
rfemur -97.853 -10.4554 -7.02443
rtibia 36.1746
rfoot -3.37688 -13.5137
rtoes -23.8987
lfemur 17.033 4.13938 -14.1881
ltibia 45.8452
lfoot -25.764 19.9036
ltoes -7.08958
375
root -2.11223 15.8617 -26.4953 -28.8437 11.8407 -3.73937
lowerback 33.456 1.83293 -7.47504
upperback 9.61328 0.394625 4.42255
thorax -6.60207 0.10843 8.55297
lowerneck -0.179177 -5.01888 -6.33921
upperneck 8.49211 -6.97347 5.68258
head 3.28104 -3.48839 2.78559
rclavicle 4.65653e-014 -9.93923e-016
rhumerus -17.0557 6.03908 -56.4164
rradius 113.046
rwrist -18.6894
rhand -28.7208 -35.159
rfingers 7.12502
rthumb -2.08205 -65.1286
lclavicle 4.65653e-014 -9.93923e-016
lhumerus 1.13558 -28.8713 74.8255
lradius 70.9224
lwrist 21.4912
lhand -31.7061 21.203
lfingers 7.12502
lthumb -4.96493 51.1248
rfemur -99.8075 -9.98153 -5.60059
rtibia 35.5908
rfoot -2.20008 -14.4573
rtoes -23.461
lfemur 18.154 4.58793 -13.6121
ltibia 45.507
lfoot -26.0748 20.3398
ltoes -7.94921
376
root -2.12073 15.8124 -26.3024 -29.3848 11.5388 -3.99555
lowerback 33.4619 1.97865 -7.20705
upperback 9.44196 0.673532 4.50374
thorax -6.8479 0.260824 8.39799
lowerneck -0.167203 -5.06286 -6.47648
upperneck 9.36988 -7.05169 5.57638
head 3.59198 -3.53484 2.77035
rclavicle 9.98893e-015 -1.05356e-014
rhumerus -16.5983 5.8343 -56.0444
rradius 113.092
rwrist -18.6525
rhand -29.5597 -35.2093
rfingers 7.12502
rthumb -2.89221 -65.1694
lclavicle 9.98893e-015 -1.05356e-014
lhumerus -0.534245 -29.0434 74.9517
lradius 72.679
lwrist 22.9395
lhand -31.6057 20.83
lfingers 7.12502
lthumb -4.86805 50.7541
rfemur -102.686 -9.61304 -2.6548
rtibia 39.4116
rfoot -2.03966 -15.2712
rtoes -23.058
lfemur 19.5468 4.63278 -12.838
ltibia 45.4191
lfoot -26.5365 20.7803
ltoes -8.86177
377
root -2.1379 15.7491 -26.096 -30.0798 11.76 -4.18188
lowerback 33.6346 1.97916 -6.96719
upperback 9.29233 0.737939 4.43027
thorax -7.0848 0.310073 8.16506
lowerneck -0.320547 -5.13348 -6.59463
upperneck 10.6403 -7.20273 5.75546
head 3.66961 -3.58447 2.56454
rclavicle -2.74571e-014 4.19436e-014
rhumerus -16.2925 5.50983 -55.9422
rradius 113.411
rwrist -18.7079
rhand -29.6672 -35.4436
rfingers 7.12502
rthumb -2.99602 -65.4023
lclavicle -2.74571e-014 4.19436e-014
lhumerus -2.17033 -29.2901 74.9534
lradius 74.4473
lwrist 24.131
lhand -31.2947 20.2895
lfingers 7.12502
lthumb -4.56771 50.2203
rfemur -106.152 -9.51074 0.437634
rtibia 46.2784
rfoot -3.30477 -15.1252
rtoes -21.8416
lfemur 20.8828 4.43513 -12.3217
ltibia 45.5891
lfoot -26.9643 21.4626
ltoes -9.23472
378
root -2.16175 15.666 -25.8711 -30.8095 12.7704 -4.30229
lowerback 33.7612 1.76127 -6.87181
upperback 9.1595 0.470137 4.20648
thorax -7.22119 0.197566 7.96882
lowerneck -0.571047 -5.22436 -6.7652
upperneck 11.6058 -7.35033 5.82412
head 4.02119 -3.65386 2.59015
rclavicle 1.43498e-014 -1.61016e-014
rhumerus -16.1348 5.08 -56.0822
rradius 113.874
rwrist -18.4978
rhand -29.7078 -35.5936
rfingers 7.12502
rthumb -3.03526 -65.5517
lclavicle 1.43498e-014 -1.61016e-014
lhumerus -3.91411 -29.5582 74.9101
lradius 76.2637
lwrist 24.7522
lhand -30.5427 19.6415
lfingers 7.12502
lthumb -3.84156 49.5866
rfemur -109.77 -9.95942 3.35253
rtibia 54.9908
rfoot -4.47019 -13.9818
rtoes -22.6799
lfemur 21.9511 3.75575 -12.2886
ltibia 46.0815
lfoot -27.3144 22.6032
ltoes -9.67869
379
root -2.19307 15.5791 -25.643 -31.5243 14.4083 -4.67133
lowerback 33.9335 1.28999 -6.59069
upperback 8.99954 -0.0647999 3.88833
thorax -7.36211 -0.0393183 7.66873
lowerneck -0.859243 -5.39176 -6.83131
upperneck 12.3098 -7.60238 5.95985
head 4.30686 -3.7671 2.615
rclavicle -3.04389e-015 7.95139e-016
rhumerus -16.1617 4.41766 -56.5062
rradius 114.561
rwrist -18.0913
rhand -29.2928 -35.6517
rfingers 7.12502
rthumb -2.63445 -65.6152
lclavicle -3.04389e-015 7.95139e-016
lhumerus -5.66755 -29.9748 74.7619
lradius 78.1062
lwrist 24.7489
lhand -29.6715 18.9908
lfingers 7.12502
lthumb -3.00019 48.9495
rfemur -113.262 -11.0711 5.69797
rtibia 64.6759
rfoot -5.80751 -12.5732
rtoes -22.7353
lfemur 22.5807 2.52038 -12.3896
ltibia 46.9198
lfoot -27.7126 23.8268
ltoes -9.78177
380
root -2.23219 15.4909 -25.4138 -32.2081 16.4427 -5.46271
lowerback 33.9223 0.615721 -6.2797
upperback 8.79214 -0.821792 3.70934
thorax -7.46483 -0.384052 7.58594
lowerneck -0.703949 -5.47284 -6.95735
upperneck 12.5745 -7.74564 6.11848
head 4.38177 -3.83759 2.67865
rclavicle -1.04416e-014 1.65116e-014
rhumerus -16.4034 3.92722 -56.9849
rradius 115.371
rwrist -17.3412
rhand -29.3388 -35.008
rfingers 7.12502
rthumb -2.67891 -64.9709
lclavicle -1.04416e-014 1.65116e-014
lhumerus -7.69577 -30.2005 74.8977
lradius 79.8887
lwrist 24.1678
lhand -28.5145 18.5215
lfingers 7.12502
lthumb -1.88281 48.4929
rfemur -116.661 -12.7175 7.92216
rtibia 74.8461
rfoot -7.48366 -11.225
rtoes -22.3756
lfemur 22.749 0.835257 -12.3262
ltibia 48.0649
lfoot -28.3213 24.9418
ltoes -10.0023
381
root -2.2827 15.405 -25.1926 -32.9959 18.527 -6.6395
lowerback 34.1981 -0.049676 -5.67561
upperback 8.66223 -1.46633 3.62828
thorax -7.62562 -0.67598 7.41115
lowerneck -1.1906 -5.76643 -7.00814
upperneck 12.7524 -8.15979 6.42547
head 4.55978 -4.01856 2.74121
rclavicle 7.29912e-016 -4.85035e-014
rhumerus -16.7377 2.91472 -57.4113
rradius 116.512
rwrist -16.6582
rhand -29.0363 -34.3652
rfingers 7.12502
rthumb -2.38681 -64.3315
lclavicle 7.29912e-016 -4.85035e-014
lhumerus -9.34105 -30.5929 75.0036
lradius 81.6224
lwrist 23.3352
lhand -27.1089 17.9481
lfingers 7.12502
lthumb -0.525253 47.9272
rfemur -119.768 -14.5486 10.3731
rtibia 85.0301
rfoot -8.49397 -10.1484
rtoes -23.4078
lfemur 22.6591 -1.12088 -11.941
ltibia 49.3836
lfoot -28.7291 26.2495
ltoes -10.7462
